<svg width="64" height="10" viewBox="0 0 64 10" fill="none" xmlns="http://www.w3.org/2000/svg">
<path d="M4.96802 1.92773L2.64771 9H0.778564L3.94849 0.46875H5.13794L4.96802 1.92773ZM6.89575 9L4.56958 1.92773L4.38208 0.46875H5.58325L8.77075 9H6.89575ZM6.79028 5.82422V7.20117H2.28442V5.82422H6.79028ZM13.2004 7.61719V0H14.8997V9H13.3704L13.2004 7.61719ZM9.19263 5.90625V5.7832C9.19263 5.29883 9.24731 4.85938 9.35669 4.46484C9.46606 4.06641 9.62622 3.72461 9.83716 3.43945C10.0481 3.1543 10.3079 2.93359 10.6165 2.77734C10.925 2.62109 11.2766 2.54297 11.6711 2.54297C12.0422 2.54297 12.3665 2.62109 12.6438 2.77734C12.925 2.93359 13.1633 3.15625 13.3586 3.44531C13.5579 3.73047 13.718 4.06836 13.8391 4.45898C13.9602 4.8457 14.0481 5.26953 14.1028 5.73047V6C14.0481 6.44141 13.9602 6.85156 13.8391 7.23047C13.718 7.60938 13.5579 7.94141 13.3586 8.22656C13.1633 8.50781 12.925 8.72656 12.6438 8.88281C12.3625 9.03906 12.0344 9.11719 11.6594 9.11719C11.2649 9.11719 10.9133 9.03711 10.6047 8.87695C10.3 8.7168 10.0422 8.49219 9.8313 8.20312C9.62427 7.91406 9.46606 7.57422 9.35669 7.18359C9.24731 6.79297 9.19263 6.36719 9.19263 5.90625ZM10.8801 5.7832V5.90625C10.8801 6.16797 10.8997 6.41211 10.9387 6.63867C10.9817 6.86523 11.05 7.06641 11.1438 7.24219C11.2415 7.41406 11.3665 7.54883 11.5188 7.64648C11.675 7.74023 11.8645 7.78711 12.0872 7.78711C12.3762 7.78711 12.6145 7.72266 12.802 7.59375C12.9895 7.46094 13.1321 7.2793 13.2297 7.04883C13.3313 6.81836 13.3899 6.55273 13.4055 6.25195V5.48438C13.3938 5.23828 13.3586 5.01758 13.3 4.82227C13.2454 4.62305 13.1633 4.45312 13.054 4.3125C12.9485 4.17188 12.8157 4.0625 12.6555 3.98438C12.4993 3.90625 12.3137 3.86719 12.0989 3.86719C11.8801 3.86719 11.6926 3.91797 11.5364 4.01953C11.3801 4.11719 11.2532 4.25195 11.1555 4.42383C11.0618 4.5957 10.9915 4.79883 10.9446 5.0332C10.9016 5.26367 10.8801 5.51367 10.8801 5.7832ZM19.9622 7.61719V0H21.6614V9H20.1321L19.9622 7.61719ZM15.9543 5.90625V5.7832C15.9543 5.29883 16.009 4.85938 16.1184 4.46484C16.2278 4.06641 16.3879 3.72461 16.5989 3.43945C16.8098 3.1543 17.0696 2.93359 17.3782 2.77734C17.6868 2.62109 18.0383 2.54297 18.4329 2.54297C18.804 2.54297 19.1282 2.62109 19.4055 2.77734C19.6868 2.93359 19.925 3.15625 20.1204 3.44531C20.3196 3.73047 20.4797 4.06836 20.6008 4.45898C20.7219 4.8457 20.8098 5.26953 20.8645 5.73047V6C20.8098 6.44141 20.7219 6.85156 20.6008 7.23047C20.4797 7.60938 20.3196 7.94141 20.1204 8.22656C19.925 8.50781 19.6868 8.72656 19.4055 8.88281C19.1243 9.03906 18.7961 9.11719 18.4211 9.11719C18.0266 9.11719 17.675 9.03711 17.3665 8.87695C17.0618 8.7168 16.804 8.49219 16.593 8.20312C16.386 7.91406 16.2278 7.57422 16.1184 7.18359C16.009 6.79297 15.9543 6.36719 15.9543 5.90625ZM17.6418 5.7832V5.90625C17.6418 6.16797 17.6614 6.41211 17.7004 6.63867C17.7434 6.86523 17.8118 7.06641 17.9055 7.24219C18.0032 7.41406 18.1282 7.54883 18.2805 7.64648C18.4368 7.74023 18.6262 7.78711 18.8489 7.78711C19.1379 7.78711 19.3762 7.72266 19.5637 7.59375C19.7512 7.46094 19.8938 7.2793 19.9915 7.04883C20.093 6.81836 20.1516 6.55273 20.1672 6.25195V5.48438C20.1555 5.23828 20.1204 5.01758 20.0618 4.82227C20.0071 4.62305 19.925 4.45312 19.8157 4.3125C19.7102 4.17188 19.5774 4.0625 19.4172 3.98438C19.261 3.90625 19.0754 3.86719 18.8606 3.86719C18.6418 3.86719 18.4543 3.91797 18.2981 4.01953C18.1418 4.11719 18.0149 4.25195 17.9172 4.42383C17.8235 4.5957 17.7532 4.79883 17.7063 5.0332C17.6633 5.26367 17.6418 5.51367 17.6418 5.7832ZM29.5715 0.46875V9H27.8196V0.46875H29.5715ZM32.1965 0.46875V1.8457H25.2356V0.46875H32.1965ZM31.804 5.89453V5.77148C31.804 5.30664 31.8704 4.87891 32.0032 4.48828C32.136 4.09375 32.3293 3.75195 32.5833 3.46289C32.8372 3.17383 33.1497 2.94922 33.5208 2.78906C33.8918 2.625 34.3176 2.54297 34.7981 2.54297C35.2786 2.54297 35.7063 2.625 36.0813 2.78906C36.4563 2.94922 36.7708 3.17383 37.0247 3.46289C37.2825 3.75195 37.4778 4.09375 37.6106 4.48828C37.7434 4.87891 37.8098 5.30664 37.8098 5.77148V5.89453C37.8098 6.35547 37.7434 6.7832 37.6106 7.17773C37.4778 7.56836 37.2825 7.91016 37.0247 8.20312C36.7708 8.49219 36.4583 8.7168 36.0872 8.87695C35.7161 9.03711 35.2903 9.11719 34.8098 9.11719C34.3293 9.11719 33.9016 9.03711 33.5266 8.87695C33.1555 8.7168 32.8411 8.49219 32.5833 8.20312C32.3293 7.91016 32.136 7.56836 32.0032 7.17773C31.8704 6.7832 31.804 6.35547 31.804 5.89453ZM33.4915 5.77148V5.89453C33.4915 6.16016 33.5149 6.4082 33.5618 6.63867C33.6086 6.86914 33.6829 7.07227 33.7844 7.24805C33.8899 7.41992 34.0266 7.55469 34.1946 7.65234C34.3625 7.75 34.5676 7.79883 34.8098 7.79883C35.0442 7.79883 35.2454 7.75 35.4133 7.65234C35.5813 7.55469 35.7161 7.41992 35.8176 7.24805C35.9192 7.07227 35.9934 6.86914 36.0403 6.63867C36.0911 6.4082 36.1165 6.16016 36.1165 5.89453V5.77148C36.1165 5.51367 36.0911 5.27148 36.0403 5.04492C35.9934 4.81445 35.9172 4.61133 35.8118 4.43555C35.7102 4.25586 35.5754 4.11523 35.4075 4.01367C35.2395 3.91211 35.0364 3.86133 34.7981 3.86133C34.5598 3.86133 34.3567 3.91211 34.1887 4.01367C34.0247 4.11523 33.8899 4.25586 33.7844 4.43555C33.6829 4.61133 33.6086 4.81445 33.5618 5.04492C33.5149 5.27148 33.4915 5.51367 33.4915 5.77148ZM46.886 6.16992H48.6379C48.6028 6.74414 48.4446 7.25391 48.1633 7.69922C47.886 8.14453 47.4973 8.49219 46.9973 8.74219C46.5012 8.99219 45.9036 9.11719 45.2043 9.11719C44.6575 9.11719 44.1672 9.02344 43.7336 8.83594C43.3 8.64453 42.929 8.37109 42.6204 8.01562C42.3157 7.66016 42.0833 7.23047 41.9231 6.72656C41.7629 6.22266 41.6829 5.6582 41.6829 5.0332V4.44141C41.6829 3.81641 41.7649 3.25195 41.929 2.74805C42.0969 2.24023 42.3352 1.80859 42.6438 1.45312C42.9563 1.09766 43.3293 0.824219 43.7629 0.632812C44.1965 0.441406 44.6809 0.345703 45.2161 0.345703C45.927 0.345703 46.5266 0.474609 47.0149 0.732422C47.5071 0.990234 47.8879 1.3457 48.1575 1.79883C48.4309 2.25195 48.595 2.76758 48.6497 3.3457H46.8918C46.8723 3.00195 46.804 2.71094 46.6868 2.47266C46.5696 2.23047 46.3918 2.04883 46.1536 1.92773C45.9192 1.80273 45.6067 1.74023 45.2161 1.74023C44.9231 1.74023 44.6672 1.79492 44.4485 1.9043C44.2297 2.01367 44.0461 2.17969 43.8977 2.40234C43.7493 2.625 43.6379 2.90625 43.5637 3.24609C43.4934 3.58203 43.4583 3.97656 43.4583 4.42969V5.0332C43.4583 5.47461 43.4915 5.86328 43.5579 6.19922C43.6243 6.53125 43.7258 6.8125 43.8625 7.04297C44.0032 7.26953 44.1829 7.44141 44.4016 7.55859C44.6243 7.67188 44.8918 7.72852 45.2043 7.72852C45.5715 7.72852 45.8743 7.66992 46.1125 7.55273C46.3508 7.43555 46.5325 7.26172 46.6575 7.03125C46.7864 6.80078 46.8625 6.51367 46.886 6.16992ZM53.1086 7.57031V4.74609C53.1086 4.54297 53.0754 4.36914 53.009 4.22461C52.9426 4.07617 52.8391 3.96094 52.6985 3.87891C52.5618 3.79688 52.384 3.75586 52.1653 3.75586C51.9778 3.75586 51.8157 3.78906 51.679 3.85547C51.5422 3.91797 51.4368 4.00977 51.3625 4.13086C51.2883 4.24805 51.2512 4.38672 51.2512 4.54688H49.5637C49.5637 4.27734 49.6262 4.02148 49.7512 3.7793C49.8762 3.53711 50.0579 3.32422 50.2961 3.14062C50.5344 2.95312 50.8176 2.80664 51.1458 2.70117C51.4778 2.5957 51.8489 2.54297 52.259 2.54297C52.7512 2.54297 53.1887 2.625 53.5715 2.78906C53.9543 2.95312 54.2551 3.19922 54.4739 3.52734C54.6965 3.85547 54.8079 4.26562 54.8079 4.75781V7.4707C54.8079 7.81836 54.8293 8.10352 54.8723 8.32617C54.9153 8.54492 54.9778 8.73633 55.0598 8.90039V9H53.3547C53.2727 8.82812 53.2102 8.61328 53.1672 8.35547C53.1282 8.09375 53.1086 7.83203 53.1086 7.57031ZM53.3313 5.13867L53.343 6.09375H52.3997C52.177 6.09375 51.9836 6.11914 51.8196 6.16992C51.6555 6.2207 51.5208 6.29297 51.4153 6.38672C51.3098 6.47656 51.2317 6.58203 51.1809 6.70312C51.134 6.82422 51.1106 6.95703 51.1106 7.10156C51.1106 7.24609 51.1438 7.37695 51.2102 7.49414C51.2766 7.60742 51.3723 7.69727 51.4973 7.76367C51.6223 7.82617 51.7688 7.85742 51.9368 7.85742C52.1907 7.85742 52.4114 7.80664 52.5989 7.70508C52.7864 7.60352 52.9309 7.47852 53.0325 7.33008C53.1379 7.18164 53.1926 7.04102 53.1965 6.9082L53.6418 7.62305C53.5793 7.7832 53.4934 7.94922 53.384 8.12109C53.2786 8.29297 53.1438 8.45508 52.9797 8.60742C52.8157 8.75586 52.6184 8.87891 52.3879 8.97656C52.1575 9.07031 51.884 9.11719 51.5676 9.11719C51.1653 9.11719 50.8 9.03711 50.4719 8.87695C50.1477 8.71289 49.8899 8.48828 49.6985 8.20312C49.511 7.91406 49.4172 7.58594 49.4172 7.21875C49.4172 6.88672 49.4797 6.5918 49.6047 6.33398C49.7297 6.07617 49.9133 5.85938 50.1555 5.68359C50.4016 5.50391 50.7083 5.36914 51.0754 5.2793C51.4426 5.18555 51.8684 5.13867 52.3528 5.13867H53.3313ZM57.7961 4.04297V9H56.1086V2.66016H57.6965L57.7961 4.04297ZM59.7063 2.61914L59.677 4.18359C59.595 4.17188 59.4954 4.16211 59.3782 4.1543C59.2649 4.14258 59.1614 4.13672 59.0676 4.13672C58.8293 4.13672 58.6223 4.16797 58.4465 4.23047C58.2747 4.28906 58.1301 4.37695 58.0129 4.49414C57.8997 4.61133 57.8137 4.75391 57.7551 4.92188C57.7004 5.08984 57.6692 5.28125 57.6614 5.49609L57.3215 5.39062C57.3215 4.98047 57.3625 4.60352 57.4446 4.25977C57.5266 3.91211 57.6458 3.60938 57.802 3.35156C57.9622 3.09375 58.1575 2.89453 58.3879 2.75391C58.6184 2.61328 58.8821 2.54297 59.179 2.54297C59.2727 2.54297 59.3684 2.55078 59.4661 2.56641C59.5637 2.57812 59.6438 2.5957 59.7063 2.61914ZM63.9016 2.66016V3.85547H60.2102V2.66016H63.9016ZM61.1243 1.0957H62.8118V7.08984C62.8118 7.27344 62.8352 7.41406 62.8821 7.51172C62.9329 7.60938 63.0071 7.67773 63.1047 7.7168C63.2024 7.75195 63.3254 7.76953 63.4739 7.76953C63.5793 7.76953 63.6731 7.76562 63.7551 7.75781C63.8411 7.74609 63.9133 7.73438 63.9719 7.72266L63.9778 8.96484C63.8333 9.01172 63.677 9.04883 63.509 9.07617C63.3411 9.10352 63.1555 9.11719 62.9524 9.11719C62.5813 9.11719 62.2571 9.05664 61.9797 8.93555C61.7063 8.81055 61.4954 8.61133 61.3469 8.33789C61.1985 8.06445 61.1243 7.70508 61.1243 7.25977V1.0957Z" fill="white"/>
</svg>
