<svg width="40" height="40" viewBox="0 0 40 40" fill="none" xmlns="http://www.w3.org/2000/svg">
<rect width="40" height="40" rx="10" fill="white"/>
<path opacity="0.4" d="M29.3699 18.3901V24.3801C29.3699 27.1401 27.1299 29.3801 24.3699 29.3801H15.6299C12.8699 29.3801 10.6299 27.1401 10.6299 24.3801V18.4601C11.3899 19.2801 12.4699 19.7501 13.6399 19.7501C14.8999 19.7501 16.1099 19.1201 16.8699 18.1101C17.5499 19.1201 18.7099 19.7501 19.9999 19.7501C21.2799 19.7501 22.4199 19.1501 23.1099 18.1501C23.8799 19.1401 25.0699 19.7501 26.3099 19.7501C27.5199 19.7501 28.6199 19.2601 29.3699 18.3901Z" fill="#99DDF9"/>
<path d="M22.9901 8.25H16.9901L16.2501 15.61C16.1901 16.29 16.2901 16.93 16.5401 17.51C17.1201 18.87 18.4801 19.75 20.0001 19.75C21.5401 19.75 22.8701 18.89 23.4701 17.52C23.6501 17.09 23.7601 16.59 23.7701 16.08V15.89L22.9901 8.25Z" fill="#00AAEF"/>
<path opacity="0.6" d="M30.36 15.27L30.07 12.5C29.65 9.48 28.28 8.25 25.35 8.25H21.51L22.25 15.75C22.26 15.85 22.27 15.96 22.27 16.15C22.33 16.67 22.49 17.15 22.73 17.58C23.45 18.9 24.85 19.75 26.31 19.75C27.64 19.75 28.84 19.16 29.59 18.12C30.19 17.32 30.46 16.31 30.36 15.27Z" fill="#99DDF9"/>
<path opacity="0.6" d="M14.5899 8.25C11.6499 8.25 10.2899 9.48 9.85989 12.53L9.58989 15.28C9.48989 16.35 9.77989 17.39 10.4099 18.2C11.1699 19.19 12.3399 19.75 13.6399 19.75C15.0999 19.75 16.4999 18.9 17.2099 17.6C17.4699 17.15 17.6399 16.63 17.6899 16.09L18.4699 8.26H14.5899V8.25Z" fill="#99DDF9"/>
<path d="M19.3501 23.66C18.0801 23.79 17.1201 24.87 17.1201 26.15V29.38H22.8701V26.5C22.8801 24.41 21.6501 23.42 19.3501 23.66Z" fill="#00AAEF"/>
</svg>
