<svg width="350" height="40" viewBox="0 0 350 40" fill="none" xmlns="http://www.w3.org/2000/svg">
<rect width="350" height="40" rx="7" fill="url(#paint0_linear_23_65)"/>
<path d="M117.227 23.7734L120.062 14.625H122.445L118.43 26H116.844L117.227 23.7734ZM114.609 14.625L117.43 23.7734L117.836 26H116.234L112.234 14.625H114.609ZM125.648 17.5469V26H123.578V17.5469H125.648ZM123.438 15.3359C123.438 15.0286 123.542 14.7734 123.75 14.5703C123.964 14.3672 124.25 14.2656 124.609 14.2656C124.969 14.2656 125.253 14.3672 125.461 14.5703C125.674 14.7734 125.781 15.0286 125.781 15.3359C125.781 15.638 125.674 15.8906 125.461 16.0938C125.253 16.2969 124.969 16.3984 124.609 16.3984C124.25 16.3984 123.964 16.2969 123.75 16.0938C123.542 15.8906 123.438 15.638 123.438 15.3359ZM131.414 26.1562C130.773 26.1562 130.198 26.0521 129.688 25.8438C129.177 25.6354 128.742 25.3464 128.383 24.9766C128.029 24.6016 127.755 24.1667 127.562 23.6719C127.375 23.1719 127.281 22.6354 127.281 22.0625V21.75C127.281 21.099 127.375 20.5078 127.562 19.9766C127.75 19.4401 128.016 18.9792 128.359 18.5938C128.703 18.2083 129.115 17.9115 129.594 17.7031C130.073 17.4948 130.602 17.3906 131.18 17.3906C131.779 17.3906 132.307 17.4922 132.766 17.6953C133.224 17.8932 133.607 18.1745 133.914 18.5391C134.221 18.9036 134.453 19.3411 134.609 19.8516C134.766 20.3568 134.844 20.9167 134.844 21.5312V22.3984H128.219V20.9766H132.812V20.8203C132.802 20.4922 132.74 20.1927 132.625 19.9219C132.51 19.6458 132.333 19.4271 132.094 19.2656C131.854 19.099 131.544 19.0156 131.164 19.0156C130.857 19.0156 130.589 19.0833 130.359 19.2188C130.135 19.349 129.948 19.5365 129.797 19.7812C129.651 20.0208 129.542 20.3073 129.469 20.6406C129.396 20.974 129.359 21.3438 129.359 21.75V22.0625C129.359 22.4167 129.406 22.7448 129.5 23.0469C129.599 23.349 129.742 23.612 129.93 23.8359C130.122 24.0547 130.352 24.2266 130.617 24.3516C130.888 24.4714 131.195 24.5312 131.539 24.5312C131.971 24.5312 132.362 24.4479 132.711 24.2812C133.065 24.1094 133.372 23.8568 133.633 23.5234L134.672 24.6016C134.495 24.862 134.255 25.112 133.953 25.3516C133.656 25.5911 133.297 25.7865 132.875 25.9375C132.453 26.0833 131.966 26.1562 131.414 26.1562ZM138.578 23.9688L140.43 17.5469H141.742L141.352 19.7656L139.484 26H138.352L138.578 23.9688ZM137.555 17.5469L138.945 23.9844L139.07 26H137.766L135.547 17.5469H137.555ZM143.461 23.8906L144.82 17.5469H146.82L144.617 26H143.312L143.461 23.8906ZM141.945 17.5469L143.781 23.9062L144.023 26H142.891L141.008 19.7656L140.625 17.5469H141.945ZM156.703 16.3516L153.461 26H151.188L155.438 14.625H156.891L156.703 16.3516ZM159.414 26L156.156 16.3516L155.961 14.625H157.422L161.695 26H159.414ZM159.266 21.7734V23.4688H153.164V21.7734H159.266ZM164.898 14V26H162.828V14H164.898ZM169.055 14V26H166.984V14H169.055ZM179.539 21.8516H176.609V20.1641H179.539C180.018 20.1641 180.406 20.0859 180.703 19.9297C181.005 19.7682 181.227 19.5495 181.367 19.2734C181.508 18.9922 181.578 18.6719 181.578 18.3125C181.578 17.9635 181.508 17.638 181.367 17.3359C181.227 17.0339 181.005 16.7891 180.703 16.6016C180.406 16.4141 180.018 16.3203 179.539 16.3203H177.312V26H175.164V14.625H179.539C180.424 14.625 181.18 14.7839 181.805 15.1016C182.435 15.4141 182.914 15.849 183.242 16.4062C183.576 16.9583 183.742 17.5885 183.742 18.2969C183.742 19.0312 183.576 19.6641 183.242 20.1953C182.914 20.7266 182.435 21.1354 181.805 21.4219C181.18 21.7083 180.424 21.8516 179.539 21.8516ZM187.336 19.2734V26H185.273V17.5469H187.227L187.336 19.2734ZM189.906 17.4922L189.875 19.4141C189.76 19.3932 189.63 19.3776 189.484 19.3672C189.344 19.3568 189.211 19.3516 189.086 19.3516C188.768 19.3516 188.49 19.3958 188.25 19.4844C188.01 19.5677 187.81 19.6901 187.648 19.8516C187.492 20.013 187.372 20.2109 187.289 20.4453C187.206 20.6745 187.159 20.9349 187.148 21.2266L186.703 21.1719C186.703 20.6354 186.758 20.138 186.867 19.6797C186.977 19.2214 187.135 18.8203 187.344 18.4766C187.552 18.1328 187.812 17.8672 188.125 17.6797C188.443 17.487 188.807 17.3906 189.219 17.3906C189.333 17.3906 189.456 17.401 189.586 17.4219C189.721 17.4375 189.828 17.4609 189.906 17.4922ZM190.453 21.8594V21.6953C190.453 21.0755 190.542 20.5052 190.719 19.9844C190.896 19.4583 191.154 19.0026 191.492 18.6172C191.831 18.2318 192.245 17.9323 192.734 17.7188C193.224 17.5 193.781 17.3906 194.406 17.3906C195.042 17.3906 195.604 17.5 196.094 17.7188C196.589 17.9323 197.005 18.2318 197.344 18.6172C197.682 19.0026 197.94 19.4583 198.117 19.9844C198.294 20.5052 198.383 21.0755 198.383 21.6953V21.8594C198.383 22.474 198.294 23.0443 198.117 23.5703C197.94 24.0911 197.682 24.5469 197.344 24.9375C197.005 25.3229 196.591 25.6224 196.102 25.8359C195.612 26.0495 195.052 26.1562 194.422 26.1562C193.797 26.1562 193.237 26.0495 192.742 25.8359C192.247 25.6224 191.831 25.3229 191.492 24.9375C191.154 24.5469 190.896 24.0911 190.719 23.5703C190.542 23.0443 190.453 22.474 190.453 21.8594ZM192.516 21.6953V21.8594C192.516 22.2292 192.552 22.5755 192.625 22.8984C192.698 23.2214 192.81 23.5052 192.961 23.75C193.112 23.9948 193.307 24.1875 193.547 24.3281C193.792 24.4635 194.083 24.5312 194.422 24.5312C194.755 24.5312 195.042 24.4635 195.281 24.3281C195.521 24.1875 195.716 23.9948 195.867 23.75C196.023 23.5052 196.138 23.2214 196.211 22.8984C196.284 22.5755 196.32 22.2292 196.32 21.8594V21.6953C196.32 21.3307 196.284 20.9896 196.211 20.6719C196.138 20.349 196.023 20.0651 195.867 19.8203C195.716 19.5703 195.518 19.375 195.273 19.2344C195.034 19.0885 194.745 19.0156 194.406 19.0156C194.073 19.0156 193.786 19.0885 193.547 19.2344C193.307 19.375 193.112 19.5703 192.961 19.8203C192.81 20.0651 192.698 20.349 192.625 20.6719C192.552 20.9896 192.516 21.3307 192.516 21.6953ZM204.953 24.2031V14H207.031V26H205.156L204.953 24.2031ZM199.523 21.875V21.7109C199.523 21.0651 199.596 20.4792 199.742 19.9531C199.893 19.4219 200.112 18.9661 200.398 18.5859C200.685 18.2057 201.031 17.9115 201.438 17.7031C201.849 17.4948 202.315 17.3906 202.836 17.3906C203.341 17.3906 203.781 17.4922 204.156 17.6953C204.536 17.8984 204.859 18.1875 205.125 18.5625C205.396 18.9375 205.612 19.3828 205.773 19.8984C205.935 20.4089 206.052 20.9714 206.125 21.5859V22.0312C206.052 22.6302 205.935 23.1797 205.773 23.6797C205.612 24.1797 205.396 24.6172 205.125 24.9922C204.859 25.362 204.536 25.6484 204.156 25.8516C203.776 26.0547 203.331 26.1562 202.82 26.1562C202.305 26.1562 201.841 26.0495 201.43 25.8359C201.023 25.6224 200.677 25.3229 200.391 24.9375C200.109 24.5521 199.893 24.099 199.742 23.5781C199.596 23.0573 199.523 22.4896 199.523 21.875ZM201.594 21.7109V21.875C201.594 22.2396 201.625 22.5807 201.688 22.8984C201.75 23.2161 201.852 23.4974 201.992 23.7422C202.133 23.9818 202.312 24.1693 202.531 24.3047C202.755 24.4401 203.026 24.5078 203.344 24.5078C203.75 24.5078 204.083 24.4193 204.344 24.2422C204.609 24.0599 204.815 23.8125 204.961 23.5C205.107 23.1823 205.201 22.8255 205.242 22.4297V21.2031C205.221 20.8906 205.167 20.6016 205.078 20.3359C204.995 20.0703 204.875 19.8411 204.719 19.6484C204.568 19.4557 204.38 19.3047 204.156 19.1953C203.932 19.0859 203.667 19.0312 203.359 19.0312C203.042 19.0312 202.771 19.1016 202.547 19.2422C202.323 19.3776 202.141 19.5677 202 19.8125C201.859 20.0573 201.755 20.3411 201.688 20.6641C201.625 20.987 201.594 21.3359 201.594 21.7109ZM213.93 23.9922V17.5469H216.008V26H214.055L213.93 23.9922ZM214.195 22.2422L214.836 22.2266C214.836 22.7943 214.773 23.3177 214.648 23.7969C214.523 24.276 214.328 24.6927 214.062 25.0469C213.802 25.3958 213.471 25.6693 213.07 25.8672C212.669 26.0599 212.195 26.1562 211.648 26.1562C211.232 26.1562 210.852 26.099 210.508 25.9844C210.164 25.8646 209.867 25.6797 209.617 25.4297C209.372 25.1745 209.182 24.849 209.047 24.4531C208.911 24.0521 208.844 23.5703 208.844 23.0078V17.5469H210.906V23.0234C210.906 23.3047 210.938 23.5391 211 23.7266C211.068 23.9141 211.159 24.0677 211.273 24.1875C211.393 24.3021 211.531 24.3854 211.688 24.4375C211.849 24.4844 212.021 24.5078 212.203 24.5078C212.703 24.5078 213.096 24.4089 213.383 24.2109C213.674 24.0078 213.883 23.737 214.008 23.3984C214.133 23.0547 214.195 22.6693 214.195 22.2422ZM221.305 24.5312C221.596 24.5312 221.857 24.474 222.086 24.3594C222.315 24.2448 222.497 24.0833 222.633 23.875C222.773 23.6667 222.849 23.4245 222.859 23.1484H224.805C224.794 23.7214 224.633 24.2344 224.32 24.6875C224.008 25.1406 223.591 25.5 223.07 25.7656C222.555 26.026 221.977 26.1562 221.336 26.1562C220.685 26.1562 220.117 26.0469 219.633 25.8281C219.148 25.6094 218.745 25.3047 218.422 24.9141C218.104 24.5234 217.865 24.0703 217.703 23.5547C217.547 23.0391 217.469 22.487 217.469 21.8984V21.6484C217.469 21.0599 217.547 20.5078 217.703 19.9922C217.865 19.4766 218.104 19.0234 218.422 18.6328C218.745 18.2422 219.148 17.9375 219.633 17.7188C220.117 17.5 220.682 17.3906 221.328 17.3906C222.01 17.3906 222.609 17.5234 223.125 17.7891C223.646 18.0547 224.052 18.4297 224.344 18.9141C224.641 19.3984 224.794 19.9688 224.805 20.625H222.859C222.849 20.3229 222.781 20.0521 222.656 19.8125C222.531 19.5729 222.354 19.3802 222.125 19.2344C221.896 19.0885 221.617 19.0156 221.289 19.0156C220.94 19.0156 220.648 19.0885 220.414 19.2344C220.185 19.3802 220.005 19.5807 219.875 19.8359C219.75 20.0859 219.661 20.3672 219.609 20.6797C219.562 20.987 219.539 21.3099 219.539 21.6484V21.8984C219.539 22.2422 219.562 22.5703 219.609 22.8828C219.661 23.1953 219.75 23.4766 219.875 23.7266C220.005 23.9714 220.185 24.1667 220.414 24.3125C220.648 24.4583 220.945 24.5312 221.305 24.5312ZM230.18 17.5469V19.0312H225.336V17.5469H230.18ZM226.633 15.4688H228.703V23.5625C228.703 23.8125 228.737 24.0052 228.805 24.1406C228.872 24.276 228.974 24.3672 229.109 24.4141C229.245 24.4609 229.406 24.4844 229.594 24.4844C229.729 24.4844 229.854 24.4766 229.969 24.4609C230.083 24.4453 230.18 24.4297 230.258 24.4141L230.266 25.9609C230.094 26.0182 229.898 26.0651 229.68 26.1016C229.466 26.138 229.224 26.1562 228.953 26.1562C228.49 26.1562 228.083 26.0781 227.734 25.9219C227.385 25.7604 227.115 25.5026 226.922 25.1484C226.729 24.7891 226.633 24.3151 226.633 23.7266V15.4688ZM236.203 23.6875C236.203 23.5104 236.156 23.3516 236.062 23.2109C235.969 23.0703 235.792 22.9427 235.531 22.8281C235.276 22.7083 234.901 22.5964 234.406 22.4922C233.969 22.3984 233.565 22.2812 233.195 22.1406C232.826 22 232.508 21.8307 232.242 21.6328C231.977 21.4297 231.768 21.1927 231.617 20.9219C231.471 20.6458 231.398 20.3281 231.398 19.9688C231.398 19.6198 231.474 19.2917 231.625 18.9844C231.776 18.6719 231.995 18.3984 232.281 18.1641C232.568 17.9245 232.917 17.737 233.328 17.6016C233.74 17.4609 234.203 17.3906 234.719 17.3906C235.438 17.3906 236.055 17.5078 236.57 17.7422C237.091 17.9766 237.49 18.2995 237.766 18.7109C238.042 19.1172 238.18 19.5755 238.18 20.0859H236.117C236.117 19.862 236.065 19.6589 235.961 19.4766C235.862 19.2943 235.708 19.1484 235.5 19.0391C235.292 18.9245 235.029 18.8672 234.711 18.8672C234.424 18.8672 234.182 18.9141 233.984 19.0078C233.792 19.1016 233.646 19.224 233.547 19.375C233.448 19.526 233.398 19.6927 233.398 19.875C233.398 20.0104 233.424 20.1328 233.477 20.2422C233.534 20.3464 233.625 20.4427 233.75 20.5312C233.875 20.6198 234.044 20.7005 234.258 20.7734C234.477 20.8464 234.745 20.9167 235.062 20.9844C235.693 21.1094 236.242 21.276 236.711 21.4844C237.185 21.6875 237.555 21.9583 237.82 22.2969C238.086 22.6354 238.219 23.0677 238.219 23.5938C238.219 23.9688 238.138 24.3125 237.977 24.625C237.815 24.9323 237.581 25.2005 237.273 25.4297C236.966 25.6589 236.599 25.8385 236.172 25.9688C235.745 26.0938 235.263 26.1562 234.727 26.1562C233.951 26.1562 233.294 26.0182 232.758 25.7422C232.221 25.4609 231.815 25.1068 231.539 24.6797C231.263 24.2474 231.125 23.7995 231.125 23.3359H233.102C233.117 23.6641 233.206 23.9271 233.367 24.125C233.529 24.3229 233.732 24.4661 233.977 24.5547C234.227 24.638 234.49 24.6797 234.766 24.6797C235.078 24.6797 235.341 24.638 235.555 24.5547C235.768 24.4661 235.93 24.349 236.039 24.2031C236.148 24.0521 236.203 23.8802 236.203 23.6875Z" fill="white"/>
<defs>
<linearGradient id="paint0_linear_23_65" x1="0" y1="0" x2="350" y2="40" gradientUnits="userSpaceOnUse">
<stop stop-color="#00AAEF"/>
<stop offset="1" stop-color="#14C2F7"/>
</linearGradient>
</defs>
</svg>
