<svg width="122" height="30" viewBox="0 0 122 30" fill="none" xmlns="http://www.w3.org/2000/svg">
<rect width="122" height="30" rx="6" fill="url(#paint0_linear_23_64)"/>
<path d="M40.1191 10.4688H43.3008C43.9531 10.4688 44.5137 10.5664 44.9824 10.7617C45.4551 10.957 45.8184 11.2461 46.0723 11.6289C46.3262 12.0117 46.4531 12.4824 46.4531 13.041C46.4531 13.498 46.375 13.8906 46.2188 14.2188C46.0664 14.543 45.8496 14.8145 45.5684 15.0332C45.291 15.248 44.9648 15.4199 44.5898 15.5488L44.0332 15.8418H41.2676L41.2559 14.4707H43.3125C43.6211 14.4707 43.877 14.416 44.0801 14.3066C44.2832 14.1973 44.4355 14.0449 44.5371 13.8496C44.6426 13.6543 44.6953 13.4277 44.6953 13.1699C44.6953 12.8965 44.6445 12.6602 44.543 12.4609C44.4414 12.2617 44.2871 12.1094 44.0801 12.0039C43.873 11.8984 43.6133 11.8457 43.3008 11.8457H41.877V19H40.1191V10.4688ZM44.8887 19L42.9434 15.1973L44.8008 15.1855L46.7695 18.918V19H44.8887ZM50.6191 19.1172C50.127 19.1172 49.6855 19.0391 49.2949 18.8828C48.9043 18.7227 48.5723 18.502 48.2988 18.2207C48.0293 17.9395 47.8223 17.6133 47.6777 17.2422C47.5332 16.8672 47.4609 16.4688 47.4609 16.0469V15.8125C47.4609 15.332 47.5293 14.8926 47.666 14.4941C47.8027 14.0957 47.998 13.75 48.252 13.457C48.5098 13.1641 48.8223 12.9395 49.1895 12.7832C49.5566 12.623 49.9707 12.543 50.4316 12.543C50.8809 12.543 51.2793 12.6172 51.627 12.7656C51.9746 12.9141 52.2656 13.125 52.5 13.3984C52.7383 13.6719 52.918 14 53.0391 14.3828C53.1602 14.7617 53.2207 15.1836 53.2207 15.6484V16.3516H48.1816V15.2266H51.5625V15.0977C51.5625 14.8633 51.5195 14.6543 51.4336 14.4707C51.3516 14.2832 51.2266 14.1348 51.0586 14.0254C50.8906 13.916 50.6758 13.8613 50.4141 13.8613C50.1914 13.8613 50 13.9102 49.8398 14.0078C49.6797 14.1055 49.5488 14.2422 49.4473 14.418C49.3496 14.5938 49.2754 14.8008 49.2246 15.0391C49.1777 15.2734 49.1543 15.5312 49.1543 15.8125V16.0469C49.1543 16.3008 49.1895 16.5352 49.2598 16.75C49.334 16.9648 49.4375 17.1504 49.5703 17.3066C49.707 17.4629 49.8711 17.584 50.0625 17.6699C50.2578 17.7559 50.4785 17.7988 50.7246 17.7988C51.0293 17.7988 51.3125 17.7402 51.5742 17.623C51.8398 17.502 52.0684 17.3203 52.2598 17.0781L53.0801 17.9688C52.9473 18.1602 52.7656 18.3438 52.5352 18.5195C52.3086 18.6953 52.0352 18.8398 51.7148 18.9531C51.3945 19.0625 51.0293 19.1172 50.6191 19.1172ZM57.9258 17.6172V10H59.625V19H58.0957L57.9258 17.6172ZM53.918 15.9062V15.7832C53.918 15.2988 53.9727 14.8594 54.082 14.4648C54.1914 14.0664 54.3516 13.7246 54.5625 13.4395C54.7734 13.1543 55.0332 12.9336 55.3418 12.7773C55.6504 12.6211 56.002 12.543 56.3965 12.543C56.7676 12.543 57.0918 12.6211 57.3691 12.7773C57.6504 12.9336 57.8887 13.1562 58.084 13.4453C58.2832 13.7305 58.4434 14.0684 58.5645 14.459C58.6855 14.8457 58.7734 15.2695 58.8281 15.7305V16C58.7734 16.4414 58.6855 16.8516 58.5645 17.2305C58.4434 17.6094 58.2832 17.9414 58.084 18.2266C57.8887 18.5078 57.6504 18.7266 57.3691 18.8828C57.0879 19.0391 56.7598 19.1172 56.3848 19.1172C55.9902 19.1172 55.6387 19.0371 55.3301 18.877C55.0254 18.7168 54.7676 18.4922 54.5566 18.2031C54.3496 17.9141 54.1914 17.5742 54.082 17.1836C53.9727 16.793 53.918 16.3672 53.918 15.9062ZM55.6055 15.7832V15.9062C55.6055 16.168 55.625 16.4121 55.6641 16.6387C55.707 16.8652 55.7754 17.0664 55.8691 17.2422C55.9668 17.4141 56.0918 17.5488 56.2441 17.6465C56.4004 17.7402 56.5898 17.7871 56.8125 17.7871C57.1016 17.7871 57.3398 17.7227 57.5273 17.5938C57.7148 17.4609 57.8574 17.2793 57.9551 17.0488C58.0566 16.8184 58.1152 16.5527 58.1309 16.252V15.4844C58.1191 15.2383 58.084 15.0176 58.0254 14.8223C57.9707 14.623 57.8887 14.4531 57.7793 14.3125C57.6738 14.1719 57.541 14.0625 57.3809 13.9844C57.2246 13.9062 57.0391 13.8672 56.8242 13.8672C56.6055 13.8672 56.418 13.918 56.2617 14.0195C56.1055 14.1172 55.9785 14.252 55.8809 14.4238C55.7871 14.5957 55.7168 14.7988 55.6699 15.0332C55.627 15.2637 55.6055 15.5137 55.6055 15.7832ZM63.8613 19.1172C63.3691 19.1172 62.9277 19.0391 62.5371 18.8828C62.1465 18.7227 61.8145 18.502 61.541 18.2207C61.2715 17.9395 61.0645 17.6133 60.9199 17.2422C60.7754 16.8672 60.7031 16.4688 60.7031 16.0469V15.8125C60.7031 15.332 60.7715 14.8926 60.9082 14.4941C61.0449 14.0957 61.2402 13.75 61.4941 13.457C61.752 13.1641 62.0645 12.9395 62.4316 12.7832C62.7988 12.623 63.2129 12.543 63.6738 12.543C64.123 12.543 64.5215 12.6172 64.8691 12.7656C65.2168 12.9141 65.5078 13.125 65.7422 13.3984C65.9805 13.6719 66.1602 14 66.2812 14.3828C66.4023 14.7617 66.4629 15.1836 66.4629 15.6484V16.3516H61.4238V15.2266H64.8047V15.0977C64.8047 14.8633 64.7617 14.6543 64.6758 14.4707C64.5938 14.2832 64.4688 14.1348 64.3008 14.0254C64.1328 13.916 63.918 13.8613 63.6562 13.8613C63.4336 13.8613 63.2422 13.9102 63.082 14.0078C62.9219 14.1055 62.791 14.2422 62.6895 14.418C62.5918 14.5938 62.5176 14.8008 62.4668 15.0391C62.4199 15.2734 62.3965 15.5312 62.3965 15.8125V16.0469C62.3965 16.3008 62.4316 16.5352 62.502 16.75C62.5762 16.9648 62.6797 17.1504 62.8125 17.3066C62.9492 17.4629 63.1133 17.584 63.3047 17.6699C63.5 17.7559 63.7207 17.7988 63.9668 17.7988C64.2715 17.7988 64.5547 17.7402 64.8164 17.623C65.082 17.502 65.3105 17.3203 65.502 17.0781L66.3223 17.9688C66.1895 18.1602 66.0078 18.3438 65.7773 18.5195C65.5508 18.6953 65.2773 18.8398 64.957 18.9531C64.6367 19.0625 64.2715 19.1172 63.8613 19.1172ZM70.3418 19.1172C69.8496 19.1172 69.4082 19.0391 69.0176 18.8828C68.627 18.7227 68.2949 18.502 68.0215 18.2207C67.752 17.9395 67.5449 17.6133 67.4004 17.2422C67.2559 16.8672 67.1836 16.4688 67.1836 16.0469V15.8125C67.1836 15.332 67.252 14.8926 67.3887 14.4941C67.5254 14.0957 67.7207 13.75 67.9746 13.457C68.2324 13.1641 68.5449 12.9395 68.9121 12.7832C69.2793 12.623 69.6934 12.543 70.1543 12.543C70.6035 12.543 71.002 12.6172 71.3496 12.7656C71.6973 12.9141 71.9883 13.125 72.2227 13.3984C72.4609 13.6719 72.6406 14 72.7617 14.3828C72.8828 14.7617 72.9434 15.1836 72.9434 15.6484V16.3516H67.9043V15.2266H71.2852V15.0977C71.2852 14.8633 71.2422 14.6543 71.1562 14.4707C71.0742 14.2832 70.9492 14.1348 70.7812 14.0254C70.6133 13.916 70.3984 13.8613 70.1367 13.8613C69.9141 13.8613 69.7227 13.9102 69.5625 14.0078C69.4023 14.1055 69.2715 14.2422 69.1699 14.418C69.0723 14.5938 68.998 14.8008 68.9473 15.0391C68.9004 15.2734 68.877 15.5312 68.877 15.8125V16.0469C68.877 16.3008 68.9121 16.5352 68.9824 16.75C69.0566 16.9648 69.1602 17.1504 69.293 17.3066C69.4297 17.4629 69.5938 17.584 69.7852 17.6699C69.9805 17.7559 70.2012 17.7988 70.4473 17.7988C70.752 17.7988 71.0352 17.7402 71.2969 17.623C71.5625 17.502 71.791 17.3203 71.9824 17.0781L72.8027 17.9688C72.6699 18.1602 72.4883 18.3438 72.2578 18.5195C72.0312 18.6953 71.7578 18.8398 71.4375 18.9531C71.1172 19.0625 70.752 19.1172 70.3418 19.1172ZM75.5918 13.9727V19H73.8984V12.6602H75.4863L75.5918 13.9727ZM75.3574 15.6074H74.8887C74.8887 15.166 74.9414 14.7598 75.0469 14.3887C75.1562 14.0137 75.3145 13.6895 75.5215 13.416C75.7324 13.1387 75.9922 12.9238 76.3008 12.7715C76.6094 12.6191 76.9668 12.543 77.373 12.543C77.6543 12.543 77.9121 12.5859 78.1465 12.6719C78.3809 12.7539 78.582 12.8848 78.75 13.0645C78.9219 13.2402 79.0547 13.4707 79.1484 13.7559C79.2422 14.0371 79.2891 14.375 79.2891 14.7695V19H77.6016V14.957C77.6016 14.668 77.5625 14.4453 77.4844 14.2891C77.4062 14.1328 77.2949 14.0234 77.1504 13.9609C77.0098 13.8984 76.8398 13.8672 76.6406 13.8672C76.4219 13.8672 76.2305 13.9121 76.0664 14.002C75.9062 14.0918 75.7734 14.2168 75.668 14.377C75.5625 14.5332 75.4844 14.7168 75.4336 14.9277C75.3828 15.1387 75.3574 15.3652 75.3574 15.6074ZM79.1309 15.4141L78.5273 15.4902C78.5273 15.0762 78.5781 14.6914 78.6797 14.3359C78.7852 13.9805 78.9395 13.668 79.1426 13.3984C79.3496 13.1289 79.6055 12.9199 79.9102 12.7715C80.2148 12.6191 80.5664 12.543 80.9648 12.543C81.2695 12.543 81.5469 12.5879 81.7969 12.6777C82.0469 12.7637 82.2598 12.9023 82.4355 13.0938C82.6152 13.2812 82.752 13.5273 82.8457 13.832C82.9434 14.1367 82.9922 14.5098 82.9922 14.9512V19H81.2988V14.9512C81.2988 14.6582 81.2598 14.4355 81.1816 14.2832C81.1074 14.127 80.998 14.0195 80.8535 13.9609C80.7129 13.8984 80.5449 13.8672 80.3496 13.8672C80.1465 13.8672 79.9688 13.9082 79.8164 13.9902C79.6641 14.0684 79.5371 14.1777 79.4355 14.3184C79.334 14.459 79.2578 14.623 79.207 14.8105C79.1562 14.9941 79.1309 15.1953 79.1309 15.4141Z" fill="white"/>
<defs>
<linearGradient id="paint0_linear_23_64" x1="4.95935" y1="8" x2="126.047" y2="32.6112" gradientUnits="userSpaceOnUse">
<stop stop-color="#FFAC30"/>
<stop offset="1" stop-color="#FF9330"/>
</linearGradient>
</defs>
</svg>
