<svg width="77" height="85" viewBox="0 0 77 85" fill="none" xmlns="http://www.w3.org/2000/svg">
<path d="M62.0628 14.9531H59.9472C57.6632 11.4083 54.5258 8.48588 50.8191 6.45042C47.1125 4.41495 42.9536 3.33076 38.7192 3.296L37.2745 0.80835H21.6074L13.7496 14.2981L15.5932 17.4708C13.8972 20.9204 13.0106 24.7076 13.0001 28.5472C12.9896 32.3867 13.8556 36.1786 15.5327 39.6373L13.7496 42.7018L21.6074 56.1916H37.2745L38.5741 53.9443C42.9047 53.9315 47.1606 52.8213 50.9395 50.7185C54.7184 48.6157 57.8956 45.5898 60.1709 41.9267H62.0567L69.8964 28.4489L62.0628 14.9531ZM60.189 23.9663C60.7323 24.5066 61.0959 25.1995 61.231 25.9515C61.3661 26.7035 61.2661 27.4787 60.9445 28.1725L59.5241 26.7664L57.4992 28.7794L56.4475 27.7339L55.2809 28.8876L53.0082 26.6463L51.3943 28.2566L49.6656 26.5441L47.4776 28.6893C46.9606 27.9165 46.7513 26.9802 46.8905 26.0625C47.0296 25.1449 47.5072 24.3115 48.2304 23.7245C48.9535 23.1376 49.8704 22.8391 50.8027 22.8871C51.735 22.9352 52.6159 23.3263 53.2742 23.9844L54.066 24.7655L54.8518 23.9844C55.5577 23.2843 56.5142 22.8911 57.5113 22.8911C58.5085 22.8911 59.4649 23.2843 60.1709 23.9844L60.189 23.9663ZM60.4066 29.0498C60.339 29.1361 60.2664 29.2184 60.189 29.2962L59.3972 30.0773L54.0841 35.3651L48.765 30.0773L48.1606 29.4764L49.6838 27.9562L51.3943 29.6507L53.0082 28.0403L55.2809 30.2516L56.4475 29.0919L57.4992 30.1374L59.5241 28.1244L60.4066 29.0498ZM25.3972 5.85576L29.441 9.13056L33.4786 5.85576L40.1759 11.9547L37.6251 14.6647L35.2074 12.5496V20.7276C35.2074 21.9594 34.9595 22.7345 33.394 22.7345H25.5363C23.9405 22.7345 23.7229 21.9594 23.7229 20.7276V12.5496L21.3052 14.6647L18.7 11.9547L25.3972 5.85576ZM38.5137 49.3175C34.343 48.8008 31.7197 49.9184 30.5108 50.6815C30.2734 50.826 30.0004 50.9024 29.722 50.9024C29.4436 50.9024 29.1707 50.826 28.9332 50.6815C27.7243 49.9425 25.1011 48.8008 20.9304 49.3175V36.2604C22.8102 35.4131 27.5793 35.2028 29.7251 38.1291C31.8829 35.2209 36.6338 35.4312 38.5137 36.2604V49.3175ZM55.0029 45.0272C50.9585 49.0651 45.5545 51.4729 39.8313 51.7872L45.1021 42.7018L37.2443 29.218H21.6074L16.8685 37.372C14.5673 31.7098 14.589 25.3766 16.929 19.7301L21.6074 27.7819H37.2745L45.1323 14.2981L39.9764 5.45917C45.6489 5.81205 50.9948 8.2191 55.0029 12.2251C55.8599 13.0771 56.65 13.9931 57.3662 14.9651H46.4016L38.5681 28.4489L46.4258 41.9327H57.6262C56.844 43.0382 55.9662 44.0736 55.0029 45.0272ZM61.1561 34.1753L59.5664 35.7677C59.2924 36.0404 58.9206 36.1939 58.5328 36.1943C58.3441 36.1944 58.1572 36.1577 57.9828 36.0861C57.7538 35.9976 57.5509 35.8532 57.3929 35.6661C57.2349 35.4791 57.1268 35.2555 57.0786 35.0161C57.0304 34.7766 57.0437 34.5289 57.1172 34.2958C57.1907 34.0628 57.3221 33.8519 57.4992 33.6826L59.101 32.0903L60.7088 30.4979C60.8435 30.3615 61.0044 30.2534 61.182 30.1801C61.3596 30.1068 61.5501 30.0698 61.7424 30.0713C61.9304 30.0726 62.1167 30.1072 62.2925 30.1734C62.4736 30.2488 62.638 30.3591 62.776 30.4979C63.0484 30.7713 63.2012 31.1406 63.2012 31.5254C63.2012 31.9103 63.0484 32.2795 62.776 32.5529L61.1561 34.1753Z" fill="#00AAEF"/>
<path d="M5.46875 78.7734L8.30469 69.625H10.6875L6.67188 81H5.08594L5.46875 78.7734ZM2.85156 69.625L5.67188 78.7734L6.07812 81H4.47656L0.476562 69.625H2.85156ZM13.8906 72.5469V81H11.8203V72.5469H13.8906ZM11.6797 70.3359C11.6797 70.0286 11.7839 69.7734 11.9922 69.5703C12.2057 69.3672 12.4922 69.2656 12.8516 69.2656C13.2109 69.2656 13.4948 69.3672 13.7031 69.5703C13.9167 69.7734 14.0234 70.0286 14.0234 70.3359C14.0234 70.638 13.9167 70.8906 13.7031 71.0938C13.4948 71.2969 13.2109 71.3984 12.8516 71.3984C12.4922 71.3984 12.2057 71.2969 11.9922 71.0938C11.7839 70.8906 11.6797 70.638 11.6797 70.3359ZM19.6562 81.1562C19.0156 81.1562 18.4401 81.0521 17.9297 80.8438C17.4193 80.6354 16.9844 80.3464 16.625 79.9766C16.2708 79.6016 15.9974 79.1667 15.8047 78.6719C15.6172 78.1719 15.5234 77.6354 15.5234 77.0625V76.75C15.5234 76.099 15.6172 75.5078 15.8047 74.9766C15.9922 74.4401 16.2578 73.9792 16.6016 73.5938C16.9453 73.2083 17.3568 72.9115 17.8359 72.7031C18.3151 72.4948 18.8438 72.3906 19.4219 72.3906C20.0208 72.3906 20.5495 72.4922 21.0078 72.6953C21.4661 72.8932 21.849 73.1745 22.1562 73.5391C22.4635 73.9036 22.6953 74.3411 22.8516 74.8516C23.0078 75.3568 23.0859 75.9167 23.0859 76.5312V77.3984H16.4609V75.9766H21.0547V75.8203C21.0443 75.4922 20.9818 75.1927 20.8672 74.9219C20.7526 74.6458 20.5755 74.4271 20.3359 74.2656C20.0964 74.099 19.7865 74.0156 19.4062 74.0156C19.099 74.0156 18.8307 74.0833 18.6016 74.2188C18.3776 74.349 18.1901 74.5365 18.0391 74.7812C17.8932 75.0208 17.7839 75.3073 17.7109 75.6406C17.638 75.974 17.6016 76.3438 17.6016 76.75V77.0625C17.6016 77.4167 17.6484 77.7448 17.7422 78.0469C17.8411 78.349 17.9844 78.612 18.1719 78.8359C18.3646 79.0547 18.5938 79.2266 18.8594 79.3516C19.1302 79.4714 19.4375 79.5312 19.7812 79.5312C20.2135 79.5312 20.6042 79.4479 20.9531 79.2812C21.3073 79.1094 21.6146 78.8568 21.875 78.5234L22.9141 79.6016C22.737 79.862 22.4974 80.112 22.1953 80.3516C21.8984 80.5911 21.5391 80.7865 21.1172 80.9375C20.6953 81.0833 20.2083 81.1562 19.6562 81.1562ZM26.8203 78.9688L28.6719 72.5469H29.9844L29.5938 74.7656L27.7266 81H26.5938L26.8203 78.9688ZM25.7969 72.5469L27.1875 78.9844L27.3125 81H26.0078L23.7891 72.5469H25.7969ZM31.7031 78.8906L33.0625 72.5469H35.0625L32.8594 81H31.5547L31.7031 78.8906ZM30.1875 72.5469L32.0234 78.9062L32.2656 81H31.1328L29.25 74.7656L28.8672 72.5469H30.1875ZM41.3594 69.625H43.2188L46.3281 78.1875L49.4297 69.625H51.2969L47.0703 81H45.5781L41.3594 69.625ZM40.4219 69.625H42.2422L42.5703 77.4922V81H40.4219V69.625ZM50.4062 69.625H52.2344V81H50.0859V77.4922L50.4062 69.625ZM53.8984 76.8594V76.6953C53.8984 76.0755 53.987 75.5052 54.1641 74.9844C54.3411 74.4583 54.599 74.0026 54.9375 73.6172C55.276 73.2318 55.6901 72.9323 56.1797 72.7188C56.6693 72.5 57.2266 72.3906 57.8516 72.3906C58.487 72.3906 59.0495 72.5 59.5391 72.7188C60.0339 72.9323 60.4505 73.2318 60.7891 73.6172C61.1276 74.0026 61.3854 74.4583 61.5625 74.9844C61.7396 75.5052 61.8281 76.0755 61.8281 76.6953V76.8594C61.8281 77.474 61.7396 78.0443 61.5625 78.5703C61.3854 79.0911 61.1276 79.5469 60.7891 79.9375C60.4505 80.3229 60.0365 80.6224 59.5469 80.8359C59.0573 81.0495 58.4974 81.1562 57.8672 81.1562C57.2422 81.1562 56.6823 81.0495 56.1875 80.8359C55.6927 80.6224 55.276 80.3229 54.9375 79.9375C54.599 79.5469 54.3411 79.0911 54.1641 78.5703C53.987 78.0443 53.8984 77.474 53.8984 76.8594ZM55.9609 76.6953V76.8594C55.9609 77.2292 55.9974 77.5755 56.0703 77.8984C56.1432 78.2214 56.2552 78.5052 56.4062 78.75C56.5573 78.9948 56.7526 79.1875 56.9922 79.3281C57.237 79.4635 57.5286 79.5312 57.8672 79.5312C58.2005 79.5312 58.487 79.4635 58.7266 79.3281C58.9661 79.1875 59.1615 78.9948 59.3125 78.75C59.4688 78.5052 59.5833 78.2214 59.6562 77.8984C59.7292 77.5755 59.7656 77.2292 59.7656 76.8594V76.6953C59.7656 76.3307 59.7292 75.9896 59.6562 75.6719C59.5833 75.349 59.4688 75.0651 59.3125 74.8203C59.1615 74.5703 58.9635 74.375 58.7188 74.2344C58.4792 74.0885 58.1901 74.0156 57.8516 74.0156C57.5182 74.0156 57.2318 74.0885 56.9922 74.2344C56.7526 74.375 56.5573 74.5703 56.4062 74.8203C56.2552 75.0651 56.1432 75.349 56.0703 75.6719C55.9974 75.9896 55.9609 76.3307 55.9609 76.6953ZM65.3906 74.2734V81H63.3281V72.5469H65.2812L65.3906 74.2734ZM67.9609 72.4922L67.9297 74.4141C67.8151 74.3932 67.6849 74.3776 67.5391 74.3672C67.3984 74.3568 67.2656 74.3516 67.1406 74.3516C66.8229 74.3516 66.5443 74.3958 66.3047 74.4844C66.0651 74.5677 65.8646 74.6901 65.7031 74.8516C65.5469 75.013 65.4271 75.2109 65.3438 75.4453C65.2604 75.6745 65.2135 75.9349 65.2031 76.2266L64.7578 76.1719C64.7578 75.6354 64.8125 75.138 64.9219 74.6797C65.0312 74.2214 65.1901 73.8203 65.3984 73.4766C65.6068 73.1328 65.8672 72.8672 66.1797 72.6797C66.4974 72.487 66.862 72.3906 67.2734 72.3906C67.388 72.3906 67.5104 72.401 67.6406 72.4219C67.776 72.4375 67.8828 72.4609 67.9609 72.4922ZM72.7344 81.1562C72.0938 81.1562 71.5182 81.0521 71.0078 80.8438C70.4974 80.6354 70.0625 80.3464 69.7031 79.9766C69.349 79.6016 69.0755 79.1667 68.8828 78.6719C68.6953 78.1719 68.6016 77.6354 68.6016 77.0625V76.75C68.6016 76.099 68.6953 75.5078 68.8828 74.9766C69.0703 74.4401 69.3359 73.9792 69.6797 73.5938C70.0234 73.2083 70.4349 72.9115 70.9141 72.7031C71.3932 72.4948 71.9219 72.3906 72.5 72.3906C73.099 72.3906 73.6276 72.4922 74.0859 72.6953C74.5443 72.8932 74.9271 73.1745 75.2344 73.5391C75.5417 73.9036 75.7734 74.3411 75.9297 74.8516C76.0859 75.3568 76.1641 75.9167 76.1641 76.5312V77.3984H69.5391V75.9766H74.1328V75.8203C74.1224 75.4922 74.0599 75.1927 73.9453 74.9219C73.8307 74.6458 73.6536 74.4271 73.4141 74.2656C73.1745 74.099 72.8646 74.0156 72.4844 74.0156C72.1771 74.0156 71.9089 74.0833 71.6797 74.2188C71.4557 74.349 71.2682 74.5365 71.1172 74.7812C70.9714 75.0208 70.862 75.3073 70.7891 75.6406C70.7161 75.974 70.6797 76.3438 70.6797 76.75V77.0625C70.6797 77.4167 70.7266 77.7448 70.8203 78.0469C70.9193 78.349 71.0625 78.612 71.25 78.8359C71.4427 79.0547 71.6719 79.2266 71.9375 79.3516C72.2083 79.4714 72.5156 79.5312 72.8594 79.5312C73.2917 79.5312 73.6823 79.4479 74.0312 79.2812C74.3854 79.1094 74.6927 78.8568 74.9531 78.5234L75.9922 79.6016C75.8151 79.862 75.5755 80.112 75.2734 80.3516C74.9766 80.5911 74.6172 80.7865 74.1953 80.9375C73.7734 81.0833 73.2865 81.1562 72.7344 81.1562Z" fill="#00AAEF"/>
</svg>
