<svg width="199" height="43" viewBox="0 0 199 43" fill="none" xmlns="http://www.w3.org/2000/svg">
<path d="M15.1628 29.5127C14.8545 29.5127 14.5587 29.6338 14.3398 29.8496C14.121 30.0655 13.9967 30.3585 13.9943 30.665C13.993 30.8539 14.0398 31.0401 14.1304 31.2062C14.207 31.3519 14.3141 31.4797 14.4444 31.5811C14.5747 31.6825 14.7252 31.755 14.8859 31.794V35.4563C14.8663 35.8885 14.6805 36.2968 14.3669 36.5968C14.0533 36.8968 13.6358 37.0658 13.2006 37.0688C12.7653 37.0718 12.3455 36.9086 12.0278 36.6129C11.7101 36.3172 11.5186 35.9115 11.4929 35.4796C11.9158 35.415 12.3015 35.2022 12.5803 34.8797C12.8592 34.5571 13.0128 34.1461 13.0134 33.7208V30.8703C13.0181 30.8019 13.0181 30.7334 13.0134 30.665C12.9756 30.4249 12.8739 30.1992 12.7187 30.0113C12.5636 29.8235 12.3607 29.6803 12.1312 29.5967V29.536C12.1209 29.446 12.0777 29.3629 12.0098 29.3026C11.9418 29.2422 11.8539 29.2089 11.7628 29.2089C11.6717 29.2089 11.5837 29.2422 11.5158 29.3026C11.4478 29.3629 11.4046 29.446 11.3944 29.536V30.1005C11.3898 30.1915 11.4198 30.2809 11.4783 30.351C11.5369 30.4211 11.6197 30.4668 11.7105 30.4791C11.8013 30.4914 11.8935 30.4694 11.9688 30.4175C12.044 30.3655 12.097 30.2874 12.1171 30.1985C12.283 30.307 12.4019 30.4735 12.4503 30.665C12.4692 30.7318 12.4786 30.8009 12.4784 30.8703V33.7021C12.4776 33.9819 12.381 34.2532 12.2044 34.4711C12.0278 34.689 11.7819 34.8407 11.507 34.9011C11.4207 34.9199 11.3326 34.9292 11.2442 34.9291H10.9532C10.6341 34.917 10.3321 34.7824 10.1107 34.5536C9.88927 34.3248 9.76569 34.0196 9.76593 33.7021V30.8703C9.76545 30.7373 9.79822 30.6063 9.86129 30.489C9.92437 30.3718 10.0158 30.2719 10.1273 30.1985C10.1479 30.2758 10.1935 30.3441 10.2572 30.393C10.3208 30.442 10.3988 30.4687 10.4793 30.4691C10.5277 30.4691 10.5757 30.4595 10.6204 30.4409C10.6651 30.4224 10.7057 30.3951 10.7398 30.3608C10.7738 30.3266 10.8007 30.2859 10.8188 30.2412C10.8369 30.1965 10.8459 30.1487 10.8453 30.1005V29.536C10.8453 29.4395 10.8067 29.3469 10.7381 29.2787C10.6694 29.2105 10.5763 29.1721 10.4793 29.1721C10.4312 29.1721 10.3836 29.1815 10.3392 29.1998C10.2948 29.2181 10.2544 29.2449 10.2204 29.2787C10.1864 29.3125 10.1595 29.3526 10.1411 29.3968C10.1227 29.4409 10.1132 29.4882 10.1132 29.536V29.5967C9.84934 29.6908 9.62118 29.8637 9.4599 30.0917C9.29862 30.3197 9.2121 30.5916 9.21216 30.8703V33.7021C9.21322 34.166 9.39618 34.6112 9.72216 34.9431C10.0482 35.275 10.4915 35.4675 10.9579 35.4796C11.012 36.0344 11.2726 36.5491 11.6888 36.9227C12.1049 37.2963 12.6465 37.5018 13.2072 37.4989C13.7679 37.496 14.3073 37.2849 14.7194 36.9069C15.1316 36.529 15.3868 36.0116 15.435 35.4563V31.8033C15.7126 31.7365 15.956 31.5708 16.1192 31.3377C16.2823 31.1046 16.3539 30.8201 16.3204 30.5381C16.2869 30.256 16.1506 29.996 15.9373 29.807C15.724 29.6181 15.4485 29.5134 15.1628 29.5127Z" fill="#00AAEF"/>
<path d="M37.8345 23.2051C37.7471 23.2053 37.6607 23.2228 37.5801 23.2564C37.4996 23.29 37.4266 23.3392 37.3652 23.401L36.1216 24.6373L37.0602 25.5704L38.3038 24.3294C38.3662 24.2686 38.4158 24.196 38.4496 24.1159C38.4835 24.0358 38.5009 23.9498 38.5009 23.8629C38.4999 23.6876 38.429 23.5198 38.3038 23.3964C38.2422 23.3352 38.169 23.2867 38.0885 23.2539C38.0079 23.2211 37.9216 23.2045 37.8345 23.2051Z" fill="#00AAEF"/>
<path d="M11.8966 13.5759H13.6283V11.6352H15.5853V9.90902H13.6283V7.96826H11.8966V9.90902H9.94434V11.6352H11.8966V13.5759Z" fill="#00AAEF"/>
<path d="M38.0927 10.9821H36.4502C34.6768 8.2299 32.2409 5.9609 29.3631 4.38055C26.4852 2.8002 23.2562 1.95842 19.9686 1.93143L18.8469 0H6.68284L0.582009 10.4736L2.01336 12.9369C0.696574 15.6152 0.00820172 18.5556 7.28429e-05 21.5366C-0.00805603 24.5177 0.66427 27.4618 1.96643 30.1471L0.582009 32.5264L6.68284 43H18.8469L19.8559 41.2552C23.2183 41.2452 26.5225 40.3832 29.4565 38.7506C32.3905 37.118 34.8573 34.7686 36.6238 31.9246H38.088L44.1748 21.4603L38.0927 10.9821ZM36.6379 17.98C37.0597 18.3995 37.342 18.9375 37.4469 19.5213C37.5518 20.1052 37.4742 20.707 37.2245 21.2457L36.1217 20.1541L34.5495 21.7169L33.733 20.9052L32.8272 21.8009L31.0627 20.0608L29.8097 21.3111L28.4675 19.9814L26.7686 21.647C26.3673 21.047 26.2048 20.32 26.3128 19.6075C26.4209 18.895 26.7917 18.248 27.3531 17.7923C27.9146 17.3366 28.6265 17.1048 29.3503 17.1421C30.0741 17.1794 30.7581 17.4831 31.2692 17.994L31.8839 18.6005L32.494 17.994C33.0421 17.4505 33.7847 17.1452 34.5589 17.1452C35.3331 17.1452 36.0757 17.4505 36.6238 17.994L36.6379 17.98ZM36.8068 21.9269C36.7544 21.9939 36.698 22.0578 36.6379 22.1182L36.0231 22.7246L31.898 26.8301L27.7682 22.7246L27.2989 22.2581L28.4816 21.0778L29.8097 22.3934L31.0627 21.1431L32.8272 22.8599L33.733 21.9595L34.5495 22.7713L36.1217 21.2084L36.8068 21.9269ZM9.62531 3.91885L12.7649 6.46143L15.8998 3.91885L21.0996 8.65412L19.1191 10.7582L17.242 9.11598V15.4654C17.242 16.4218 17.0495 17.0237 15.8341 17.0237H9.73325C8.49431 17.0237 8.32537 16.4218 8.32537 15.4654V9.11598L6.44819 10.7582L4.42553 8.65412L9.62531 3.91885ZM19.809 37.6629C16.5709 37.2617 14.5341 38.1294 13.5955 38.7219C13.4112 38.8341 13.1993 38.8934 12.9831 38.8934C12.767 38.8934 12.555 38.8341 12.3707 38.7219C11.4321 38.1481 9.39536 37.2617 6.15723 37.6629V27.5252C7.61673 26.8674 11.3195 26.7041 12.9855 28.9761C14.6608 26.7181 18.3495 26.8814 19.809 27.5252V37.6629ZM32.6114 34.3319C29.4713 37.4669 25.2756 39.3364 20.8321 39.5803L24.9243 32.5264L18.8235 22.0575H6.68284L3.00357 28.3883C1.21683 23.9921 1.23367 19.075 3.0505 14.691L6.68284 20.9425H18.8469L24.9478 10.4736L20.9447 3.61094C25.3489 3.88491 29.4994 5.75377 32.6114 8.86406C33.2768 9.52553 33.8902 10.2367 34.4463 10.9914H25.9333L19.8512 21.4603L25.9521 31.9293H34.6481C34.0408 32.7875 33.3593 33.5915 32.6114 34.3319ZM37.3888 25.9064L36.1545 27.1427C35.9418 27.3545 35.6531 27.4736 35.352 27.4739C35.2055 27.474 35.0604 27.4455 34.925 27.3899C34.7472 27.3212 34.5897 27.2091 34.467 27.0639C34.3443 26.9187 34.2604 26.7451 34.223 26.5591C34.1856 26.3732 34.1959 26.1809 34.253 25.9999C34.31 25.819 34.412 25.6552 34.5495 25.5238L35.7932 24.2875L37.0415 23.0512C37.146 22.9453 37.271 22.8614 37.4089 22.8045C37.5467 22.7476 37.6947 22.7188 37.844 22.72C37.9899 22.721 38.1346 22.7479 38.271 22.7993C38.4117 22.8578 38.5393 22.9434 38.6465 23.0512C38.858 23.2635 38.9766 23.5502 38.9766 23.849C38.9766 24.1478 38.858 24.4345 38.6465 24.6467L37.3888 25.9064Z" fill="#00AAEF"/>
<path d="M56.564 13.5293H60.2479L64.2745 24.1195H64.4434L68.4653 13.5293H72.1727V28.6122H69.3335V21.1804L69.5071 18.6751H69.3335L65.4806 28.6122H63.2561L59.3797 18.6611H59.2108L59.3797 21.1664V28.6122H56.564V13.5293Z" fill="#00AAEF"/>
<path d="M77.4054 28.2157C76.5573 27.7336 75.8579 27.0302 75.3828 26.1816C74.905 25.294 74.655 24.3028 74.655 23.2961C74.655 22.2894 74.905 21.2983 75.3828 20.4106C75.8487 19.5502 76.5351 18.8276 77.3726 18.3159C78.2263 17.7956 79.2105 17.5255 80.2118 17.5368C81.2173 17.5105 82.2107 17.759 83.0839 18.2553C83.8725 18.7156 84.5087 19.3951 84.9141 20.21C85.3384 21.0688 85.5523 22.0152 85.5383 22.9719C85.5404 23.2839 85.52 23.5958 85.4773 23.9049H77.3632C77.4511 24.6564 77.8175 25.3483 78.3909 25.8457C78.9447 26.2915 79.6402 26.5264 80.3526 26.5082C80.9262 26.5248 81.4933 26.3827 81.9904 26.0976C82.4446 25.8288 82.8212 25.448 83.0839 24.9919L85.3271 26.0883C84.8493 26.9888 84.1242 27.736 83.2362 28.243C82.3481 28.7501 81.3335 28.9962 80.3103 28.9528C79.2935 28.9666 78.2912 28.7123 77.4054 28.2157ZM82.8727 21.9268C82.8354 21.567 82.7079 21.2221 82.5019 20.9238C82.2679 20.5825 81.9559 20.3012 81.5915 20.1027C81.172 19.8792 80.7017 19.7667 80.2259 19.7761C79.6056 19.7621 79.0003 19.9671 78.5176 20.3546C78.0278 20.7676 77.6705 21.3142 77.4899 21.9268H82.8727Z" fill="#00AAEF"/>
<path d="M89.7667 28.225C88.9678 27.7339 88.3188 27.0355 87.8896 26.2049C87.4358 25.285 87.2 24.274 87.2 23.2494C87.2 22.2249 87.4358 21.2139 87.8896 20.294C88.3174 19.46 88.9665 18.7582 89.7667 18.2646C90.566 17.7791 91.4864 17.5269 92.4229 17.5368C93.1035 17.5207 93.7764 17.6815 94.3752 18.0033C94.8967 18.2788 95.3404 18.6798 95.6658 19.1696H95.8347L95.6658 17.6534V13.5293H98.4205V28.6122H95.8347V27.3292H95.6658C95.3504 27.8218 94.908 28.2214 94.3846 28.4862C93.7815 28.8056 93.1062 28.9662 92.4229 28.9528C91.4864 28.9626 90.566 28.7104 89.7667 28.225ZM94.3471 26.0043C94.8019 25.7348 95.1749 25.3479 95.4264 24.8846C95.6886 24.3798 95.8254 23.8199 95.8254 23.2518C95.8254 22.6836 95.6886 22.1237 95.4264 21.6189C95.1786 21.1651 94.8116 20.7866 94.3645 20.5237C93.9174 20.2608 93.407 20.1234 92.8876 20.126C92.3713 20.1267 91.8648 20.2658 91.4213 20.5285C90.9778 20.7912 90.6138 21.1679 90.3674 21.6189C90.1053 22.1237 89.9685 22.6836 89.9685 23.2518C89.9685 23.8199 90.1053 24.3798 90.3674 24.8846C90.6176 25.3488 90.9909 25.7361 91.4468 26.0043C91.8814 26.2653 92.3798 26.4025 92.8876 26.4008C93.4013 26.4035 93.9061 26.2664 94.3471 26.0043Z" fill="#00AAEF"/>
<path d="M101.447 16.1699C101.28 16.0089 101.147 15.8161 101.056 15.6029C100.965 15.3897 100.918 15.1606 100.917 14.929C100.914 14.6948 100.959 14.4624 101.051 14.2465C101.142 14.0306 101.277 13.8357 101.447 13.674C101.614 13.5083 101.813 13.3776 102.031 13.2894C102.25 13.2013 102.484 13.1576 102.719 13.1608C102.953 13.1589 103.185 13.2034 103.402 13.2916C103.619 13.3798 103.816 13.51 103.981 13.6745C104.147 13.8391 104.278 14.0348 104.366 14.2501C104.455 14.4655 104.5 14.6962 104.498 14.929C104.501 15.1633 104.457 15.3959 104.368 15.613C104.28 15.8302 104.148 16.0275 103.982 16.1933C103.819 16.3627 103.623 16.497 103.406 16.5877C103.189 16.6784 102.955 16.7236 102.719 16.7204C102.481 16.7202 102.245 16.6712 102.026 16.5765C101.807 16.4818 101.61 16.3434 101.447 16.1699ZM101.321 17.8728H104.094V28.6029H101.321V17.8728Z" fill="#00AAEF"/>
<path d="M109.055 28.225C108.195 27.7534 107.488 27.0477 107.018 26.191C106.537 25.2842 106.286 24.2746 106.286 23.2495C106.286 22.2244 106.537 21.2148 107.018 20.308C107.491 19.4575 108.191 18.7535 109.041 18.274C109.932 17.775 110.941 17.5206 111.964 17.5368C113.047 17.5076 114.116 17.7738 115.057 18.3066C115.91 18.8037 116.571 19.5708 116.934 20.4853L114.391 21.5397C114.186 21.0829 113.844 20.7002 113.413 20.4438C112.981 20.1874 112.48 20.0699 111.978 20.1074C111.587 20.0985 111.198 20.173 110.838 20.3259C110.478 20.4788 110.154 20.7065 109.89 20.9938C109.328 21.6152 109.035 22.4313 109.073 23.2658C109.032 24.1078 109.325 24.9323 109.89 25.5611C110.156 25.8452 110.48 26.0692 110.84 26.2181C111.2 26.367 111.588 26.4373 111.978 26.4242C112.509 26.4512 113.036 26.3189 113.491 26.0443C113.945 25.7698 114.306 25.3657 114.527 24.8847L117.047 25.981C116.613 26.8892 115.921 27.6513 115.057 28.1737C114.141 28.6761 113.113 28.9438 112.067 28.9528C111.021 28.9618 109.989 28.7116 109.064 28.225H109.055Z" fill="#00AAEF"/>
<path d="M119.412 27.9496C119.047 27.6187 118.76 27.2126 118.569 26.7598C118.379 26.3069 118.29 25.8182 118.309 25.3277C118.299 24.6527 118.499 23.991 118.882 23.4336C119.276 22.8758 119.819 22.4381 120.449 22.1693C121.143 21.8603 121.895 21.7013 122.655 21.7028C123.629 21.6735 124.599 21.8319 125.513 22.1693V21.7028C125.515 21.4372 125.456 21.1747 125.341 20.9347C125.227 20.6948 125.059 20.4837 124.851 20.3172C124.337 19.931 123.702 19.7377 123.058 19.7714C122.548 19.7702 122.045 19.8884 121.59 20.1166C121.133 20.3387 120.731 20.6571 120.412 21.0496L118.633 19.6501C119.151 18.9769 119.828 18.4415 120.604 18.0919C121.413 17.7201 122.294 17.532 123.185 17.5413C124.837 17.5413 126.089 17.9208 126.94 18.6797C127.791 19.4386 128.221 20.5474 128.23 22.006V28.6121H125.499V27.5251H125.33C124.987 27.9611 124.549 28.3137 124.049 28.5561C123.295 28.9006 122.459 29.0269 121.636 28.9205C120.814 28.814 120.038 28.4792 119.398 27.9543L119.412 27.9496ZM124.804 26.0368C125.259 25.5554 125.512 24.9199 125.513 24.2594C124.805 23.923 124.031 23.7492 123.246 23.7509C121.805 23.7509 121.087 24.2874 121.087 25.351C121.081 25.5519 121.12 25.7517 121.201 25.9357C121.282 26.1197 121.404 26.2834 121.557 26.4147C121.934 26.7113 122.409 26.8577 122.89 26.8253C123.247 26.8384 123.603 26.7748 123.933 26.6388C124.264 26.5027 124.561 26.2974 124.804 26.0368Z" fill="#00AAEF"/>
<path d="M130.806 13.5293H133.585V28.6122H130.806V13.5293Z" fill="#00AAEF"/>
<path d="M139.427 13.5293H142.604L144.683 21.9921L144.937 23.5737H145.106L145.444 21.9921L148.114 13.5293H150.93L153.539 21.9921L153.877 23.5317H154.046L154.299 21.9921L156.355 13.5293H159.532L155.613 28.6029H152.539L149.958 19.5055L149.62 17.8867H149.447L149.109 19.5055L146.396 28.6029H143.454L139.427 13.5293Z" fill="#00AAEF"/>
<path d="M162.202 28.2016C161.343 27.7239 160.635 27.018 160.156 26.1628C159.676 25.2669 159.424 24.2671 159.424 23.2517C159.424 22.2363 159.676 21.2365 160.156 20.3405C160.633 19.4791 161.341 18.7666 162.202 18.2831C163.117 17.7931 164.139 17.5366 165.178 17.5366C166.216 17.5366 167.239 17.7931 168.153 18.2831C169.014 18.7666 169.723 19.4791 170.199 20.3405C170.677 21.2375 170.926 22.2369 170.926 23.2517C170.926 24.2665 170.677 25.2659 170.199 26.1628C169.721 27.018 169.012 27.7239 168.153 28.2016C167.24 28.6944 166.217 28.9525 165.178 28.9525C164.138 28.9525 163.116 28.6944 162.202 28.2016ZM166.67 26.0229C167.125 25.7657 167.499 25.3877 167.749 24.9312C168.028 24.412 168.167 23.8304 168.153 23.2423C168.165 22.6634 168.026 22.0912 167.749 21.5815C167.499 21.1233 167.125 20.7436 166.67 20.4852C166.215 20.2373 165.705 20.1073 165.187 20.1073C164.669 20.1073 164.159 20.2373 163.704 20.4852C163.246 20.7439 162.87 21.1233 162.615 21.5815C162.332 22.0888 162.189 22.6621 162.202 23.2423C162.189 23.827 162.332 24.4047 162.615 24.9172C162.866 25.3801 163.244 25.7633 163.704 26.0229C164.159 26.2707 164.669 26.4007 165.187 26.4007C165.705 26.4007 166.215 26.2707 166.67 26.0229Z" fill="#00AAEF"/>
<path d="M172.836 17.8728H175.441V19.305H175.61C175.9 18.7801 176.332 18.3468 176.858 18.0547C177.427 17.7225 178.076 17.5514 178.735 17.5602C179.198 17.5536 179.657 17.631 180.092 17.7888V20.5507C179.777 20.4311 179.456 20.3283 179.13 20.2428C178.856 20.18 178.575 20.1487 178.294 20.1494C177.922 20.135 177.552 20.2072 177.213 20.3603C176.874 20.5134 176.576 20.7431 176.342 21.0312C175.847 21.6697 175.593 22.4604 175.624 23.2659V28.6123H172.851L172.836 17.8728Z" fill="#00AAEF"/>
<path d="M181.983 13.5293H184.761V28.6122H181.983V13.5293Z" fill="#00AAEF"/>
<path d="M189.37 28.225C188.571 27.7339 187.922 27.0355 187.492 26.2049C187.039 25.285 186.803 24.274 186.803 23.2494C186.803 22.2249 187.039 21.2139 187.492 20.294C187.92 19.46 188.569 18.7582 189.37 18.2646C190.169 17.7787 191.089 17.5264 192.026 17.5368C192.705 17.52 193.377 17.6808 193.973 18.0033C194.496 18.2786 194.942 18.6796 195.269 19.1696H195.438L195.269 17.6534V13.5293H198.019V28.6122H195.438V27.3292H195.269C194.951 27.8202 194.51 28.2193 193.988 28.4862C193.384 28.8056 192.709 28.9662 192.026 28.9528C191.089 28.9631 190.169 28.7109 189.37 28.225ZM193.955 26.0043C194.41 25.7348 194.783 25.3479 195.034 24.8846C195.296 24.3798 195.433 23.8199 195.433 23.2518C195.433 22.6836 195.296 22.1237 195.034 21.6189C194.787 21.1661 194.421 20.788 193.975 20.5245C193.529 20.2611 193.021 20.122 192.502 20.122C191.984 20.122 191.475 20.2611 191.029 20.5245C190.584 20.788 190.218 21.1661 189.97 21.6189C189.708 22.1237 189.571 22.6836 189.571 23.2518C189.571 23.8199 189.708 24.3798 189.97 24.8846C190.222 25.3479 190.595 25.7348 191.05 26.0043C191.485 26.2631 191.983 26.4001 192.49 26.4008C193.006 26.4044 193.512 26.2672 193.955 26.0043Z" fill="#00AAEF"/>
</svg>
