<svg width="24" height="24" viewBox="0 0 24 24" fill="none" xmlns="http://www.w3.org/2000/svg">
<path d="M21.2001 12.87V18C21.2001 18.4695 21.0136 18.9197 20.6817 19.2516C20.3498 19.5835 19.8996 19.77 19.4301 19.77H4.57012C4.10069 19.77 3.65048 19.5835 3.31854 19.2516C2.9866 18.9197 2.80012 18.4695 2.80012 18V12.87C2.7904 10.3628 3.75488 7.9498 5.49012 6.14003C6.69764 4.88526 8.23782 4.0007 9.93012 3.59003C9.8866 3.20235 9.95141 2.81019 10.1174 2.45713C10.2833 2.10406 10.5439 1.80392 10.8701 1.59003C11.2058 1.36978 11.5986 1.25244 12.0001 1.25244C12.4016 1.25244 12.7944 1.36978 13.1301 1.59003C13.458 1.80225 13.7199 2.10213 13.8861 2.45563C14.0522 2.80914 14.116 3.20213 14.0701 3.59003C16.1265 4.11428 17.9472 5.31405 19.2401 6.99686C20.5331 8.67967 21.2233 10.748 21.2001 12.87V12.87Z" stroke="#BCDBFB" stroke-width="1.5" stroke-miterlimit="10" stroke-linecap="round"/>
<path d="M14.1801 20C14.1569 20.5388 13.932 21.0492 13.5501 21.43C13.3473 21.635 13.1059 21.7977 12.8399 21.9088C12.5738 22.0199 12.2884 22.0771 12.0001 22.0771C11.7118 22.0771 11.4263 22.0199 11.1602 21.9088C10.8942 21.7977 10.6528 21.635 10.4501 21.43C10.0681 21.0492 9.84328 20.5388 9.82007 20H14.1801Z" stroke="#BCDBFB" stroke-width="1.5" stroke-miterlimit="10" stroke-linecap="round"/>
</svg>
