<svg width="24" height="24" viewBox="0 0 24 24" fill="none" xmlns="http://www.w3.org/2000/svg">
<path d="M1.90991 2.51001L3.20991 2.83001C3.62745 2.96673 4.00117 3.21192 4.29284 3.54048C4.58451 3.86905 4.78366 4.26921 4.86991 4.70001L7.15991 13.39C7.25003 13.9315 7.51655 14.428 7.91804 14.8024C8.31952 15.1767 8.83345 15.4079 9.37991 15.46H18.5699C19.1929 15.3819 19.7677 15.0843 20.191 14.6206C20.6144 14.1569 20.8586 13.5575 20.8799 12.93L21.7599 6.66001C21.9599 5.24001 21.1399 3.94001 20.0499 3.94001H8.61991" stroke="#00AAEF" stroke-width="1.5" stroke-miterlimit="10" stroke-linecap="round"/>
<path d="M9.15989 22.06C10.2755 22.06 11.1799 21.1556 11.1799 20.04C11.1799 18.9244 10.2755 18.02 9.15989 18.02C8.04428 18.02 7.13989 18.9244 7.13989 20.04C7.13989 21.1556 8.04428 22.06 9.15989 22.06Z" stroke="#00AAEF" stroke-width="1.5" stroke-miterlimit="10" stroke-linecap="round"/>
<path d="M19.53 22.06C20.6456 22.06 21.55 21.1556 21.55 20.04C21.55 18.9244 20.6456 18.02 19.53 18.02C18.4144 18.02 17.51 18.9244 17.51 20.04C17.51 21.1556 18.4144 22.06 19.53 22.06Z" stroke="#00AAEF" stroke-width="1.5" stroke-miterlimit="10" stroke-linecap="round"/>
</svg>
