<?xml version="1.0" encoding="iso-8859-1"?>
<!-- Generator: Adobe Illustrator 19.0.0, SVG Export Plug-In . SVG Version: 6.00 Build 0)  -->
<svg version="1.1" id="Layer_1" xmlns="http://www.w3.org/2000/svg" xmlns:xlink="http://www.w3.org/1999/xlink" x="0px" y="0px"
	 viewBox="0 0 512.009 512.009" style="enable-background:new 0 0 512.009 512.009;" xml:space="preserve">
<path style="fill:#E2E2E2;" d="M256,512.004c141.392,0,256-114.608,256-256s-114.608-256-256-256S0,114.612,0,256.004
	S114.608,512.004,256,512.004z"/>
<polygon style="fill:#FFFFFF;" points="208.832,155.668 190.304,176.548 273.984,250.9 417.712,66.82 395.712,49.636 
	270.304,210.244 "/>
<path style="fill:#ED1C24;" d="M219.456,143.716l-11.968-10.624l-10.624,11.968l-18.528,20.88l-10.624,11.968l11.952,10.624
	l83.68,74.336l12.752,11.328l10.496-13.44l143.712-184.08l9.84-12.608l-12.608-9.84l-22-17.184l-12.608-9.856l-9.856,12.608
	L268.16,186.98L219.456,143.716z"/>
<path d="M453.904,364.324c-34.8,17.328-146.752,52-199.712,0c0,0,122.56,10.672,127.088,0c4.544-10.672-13.616-28-108.928-48
	s-163.408,0-163.408,0v128c0,0,60.512-30.672,90.784-16s113.472,36,163.408,32s130.112-68,145.248-89.328
	C523.488,349.652,488.688,346.98,453.904,364.324z"/>
<rect y="316.324" style="fill:#ED1C24;" width="72.624" height="144"/>
<g>
</g>
<g>
</g>
<g>
</g>
<g>
</g>
<g>
</g>
<g>
</g>
<g>
</g>
<g>
</g>
<g>
</g>
<g>
</g>
<g>
</g>
<g>
</g>
<g>
</g>
<g>
</g>
<g>
</g>
</svg>
