<?xml version="1.0" encoding="iso-8859-1"?>
<!-- Generator: Adobe Illustrator 19.0.0, SVG Export Plug-In . SVG Version: 6.00 Build 0)  -->
<svg version="1.1" id="Layer_1" xmlns="http://www.w3.org/2000/svg" xmlns:xlink="http://www.w3.org/1999/xlink" x="0px" y="0px"
	 viewBox="0 0 297 297" style="enable-background:new 0 0 297 297;" xml:space="preserve">
<g>
	<g>
		<g>
			<g>
				<circle style="fill:#9ADAD9;" cx="148.5" cy="148.5" r="148.5"/>
			</g>
		</g>
	</g>
	<path style="fill:#6DAFAC;" d="M236.005,93.777L88.257,245.292l51.47,51.443c2.903,0.169,5.827,0.265,8.773,0.265
		c79.948,0,145.129-63.181,148.363-142.336L236.005,93.777z"/>
	<path style="fill:#FFFFFF;" d="M86.167,145.802v94.365c0,4.05,3.283,7.333,7.333,7.333h109.666c4.05,0,7.333-3.283,7.333-7.333
		v-94.365l23.766,2.647c2.293,0.376,4.376-1.393,4.376-3.716v-44.466c0-4.498-3.217-8.352-7.642-9.156L176,82.5h-55l-55,8.611
		c-4.425,0.805-7.642,4.659-7.642,9.156v44.412c0,2.323,2.083,4.093,4.376,3.716L86.167,145.802z"/>
	<path style="fill:#EDECEB;" d="M231,91.111L176,82.5h-27.833v165h55c4.05,0,7.333-3.283,7.333-7.333v-94.365l23.766,2.647
		c2.293,0.376,4.376-1.393,4.376-3.716v-44.466C238.642,95.769,235.425,91.915,231,91.111z"/>
	<polygon style="fill:#D0D5D9;" points="176,82.5 148.5,115.5 121,82.5 	"/>
	<polygon style="fill:#A1A5A8;" points="176,82.5 148.167,82.5 148.167,115.1 148.5,115.5 	"/>
	<rect x="165" y="132" style="fill:#BDC3C7;" width="33" height="33"/>
</g>
<g>
</g>
<g>
</g>
<g>
</g>
<g>
</g>
<g>
</g>
<g>
</g>
<g>
</g>
<g>
</g>
<g>
</g>
<g>
</g>
<g>
</g>
<g>
</g>
<g>
</g>
<g>
</g>
<g>
</g>
</svg>
