<?xml version="1.0" encoding="iso-8859-1"?>
<!-- Generator: Adobe Illustrator 19.0.0, SVG Export Plug-In . SVG Version: 6.00 Build 0)  -->
<svg version="1.1" id="Layer_1" xmlns="http://www.w3.org/2000/svg" xmlns:xlink="http://www.w3.org/1999/xlink" x="0px" y="0px"
	 viewBox="0 0 508 508" style="enable-background:new 0 0 508 508;" xml:space="preserve">
<path style="fill:#F2F2F2;" d="M503.142,90.3c-3.2-4.1-8.1-6.4-13.3-6.4h-399V17c0-9.4-7.6-17-17-17h-55.6c-9.4,0-17,7.6-17,17
	s7.6,17,17,17h38.6v404.5c0,9.4,7.6,17,17,17h246.2c9.4,0,17-7.6,17-17s-7.6-17-17-17h-229.3v-69.2h344.5c7.9,0,14.8-5.4,16.5-13.1
	l54.5-234.5C507.542,99.6,506.342,94.3,503.142,90.3z M161.942,281.9c0,9.9-8,17.8-17.8,17.8s-17.8-8-17.8-17.8V154.2
	c0-9.9,8-17.8,17.8-17.8c9.9,0,17.8,8,17.8,17.8V281.9z M246.142,281.9c0,9.9-8,17.8-17.8,17.8s-17.8-8-17.8-17.8V154.2
	c0-9.9,8-17.8,17.8-17.8s17.8,8,17.8,17.8V281.9z M330.442,281.9c0,9.9-8,17.8-17.8,17.8s-17.8-8-17.8-17.8V154.2
	c0-9.9,8-17.8,17.8-17.8c9.9,0,17.8,8,17.8,17.8V281.9z M414.742,281.9c0,9.9-8,17.8-17.8,17.8s-17.8-8-17.8-17.8V154.2
	c0-9.9,8-17.8,17.8-17.8c9.9,0,17.8,8,17.8,17.8V281.9z"/>
<path style="fill:#40596B;" d="M373.342,508c-38.4,0-69.6-31.2-69.6-69.6s31.2-69.6,69.6-69.6s69.6,31.2,69.6,69.6
	S411.742,508,373.342,508z"/>
<path style="fill:#FFFFFF;" d="M373.342,402.7c-19.7,0-35.6,16-35.6,35.6c0,19.7,16,35.6,35.6,35.6c19.7,0,35.6-16,35.6-35.6
	C409.042,418.7,393.042,402.7,373.342,402.7z"/>
<path style="fill:#40596B;" d="M126.442,508c-38.4,0-69.6-31.2-69.6-69.6s31.2-69.6,69.6-69.6s69.6,31.2,69.6,69.6
	S164.842,508,126.442,508z"/>
<path style="fill:#FFFFFF;" d="M126.442,402.7c-19.7,0-35.6,16-35.6,35.6c0,19.7,16,35.6,35.6,35.6s35.6-16,35.6-35.6
	S146.142,402.7,126.442,402.7z"/>
<g>
</g>
<g>
</g>
<g>
</g>
<g>
</g>
<g>
</g>
<g>
</g>
<g>
</g>
<g>
</g>
<g>
</g>
<g>
</g>
<g>
</g>
<g>
</g>
<g>
</g>
<g>
</g>
<g>
</g>
</svg>
