<?xml version="1.0" encoding="iso-8859-1"?>
<!-- Generator: Adobe Illustrator 19.0.0, SVG Export Plug-In . SVG Version: 6.00 Build 0)  -->
<svg version="1.1" id="Layer_1" xmlns="http://www.w3.org/2000/svg" xmlns:xlink="http://www.w3.org/1999/xlink" x="0px" y="0px"
	 viewBox="0 0 512 512" style="enable-background:new 0 0 512 512;" xml:space="preserve">
<path style="fill:#48AEE2;" d="M280.625,476.297H156.021c-32.995,0-59.839-26.844-59.839-59.839V256.005
	c0-26.357,39.893-26.385,39.893,0v160.453c0,10.998,8.948,19.946,19.946,19.946h124.604c10.998,0,19.946-8.948,19.946-19.946
	V284.811c0-32.995,26.844-59.839,59.839-59.839h19.942c26.357,0,26.385,39.893,0,39.893h-19.942c-11,0-19.946,8.948-19.946,19.946
	v131.647C340.465,449.453,313.622,476.297,280.625,476.297z"/>
<path style="fill:#39A3DB;" d="M380.353,224.972h-19.942c-32.997,0-59.839,26.844-59.839,59.839v131.647
	c0,10.997-8.948,19.946-19.946,19.946h-24.626v39.893h24.626c32.995,0,59.839-26.845,59.839-59.839V284.811
	c0-10.998,8.947-19.946,19.946-19.946h19.942C406.711,264.865,406.739,224.972,380.353,224.972z"/>
<path style="fill:#3797D3;" d="M436.204,320.711c-41.794,0-75.797-34.002-75.797-75.797s34.002-75.796,75.797-75.796
	S512,203.12,512,244.914S477.998,320.711,436.204,320.711z"/>
<path style="fill:#39A3DB;" d="M470.773,244.914c0,19.091-15.477,34.57-34.57,34.57c-19.091,0-34.569-15.477-34.569-34.57
	C401.635,199.233,470.773,199.187,470.773,244.914z"/>
<g>
	<path style="fill:#939598;" d="M0,114.159v-58.51c0-11.016,8.931-19.946,19.946-19.946h40.779c11.016,0,19.946,8.931,19.946,19.946
		s-8.931,19.946-19.946,19.946H39.893v38.563C39.893,140.516,0,140.543,0,114.159z"/>
	<path style="fill:#939598;" d="M212.318,134.105c-11.016,0-19.946-8.931-19.946-19.946V75.596h-20.832
		c-11.016,0-19.946-8.931-19.946-19.946s8.931-19.946,19.946-19.946h40.779c11.016,0,19.946,8.931,19.946,19.946v58.51
		C232.264,125.175,223.334,134.105,212.318,134.105z"/>
</g>
<path style="fill:#80D0E1;" d="M0,159.823v-45.664c0-11.016,8.931-19.946,19.946-19.946h66.488c11.016,0,19.946,8.931,19.946,19.946
	v45.664c0,12.885,19.508,12.881,19.508,0v-45.664c0-11.016,8.931-19.946,19.946-19.946h66.488c11.016,0,19.946,8.931,19.946,19.946
	v45.664c0,31.018-12.082,60.182-34.021,82.122C125.613,314.526,0,263.338,0,159.823z"/>
<g>
</g>
<g>
</g>
<g>
</g>
<g>
</g>
<g>
</g>
<g>
</g>
<g>
</g>
<g>
</g>
<g>
</g>
<g>
</g>
<g>
</g>
<g>
</g>
<g>
</g>
<g>
</g>
<g>
</g>
</svg>
