<?xml version="1.0" encoding="iso-8859-1"?>
<!-- Generator: Adobe Illustrator 19.0.0, SVG Export Plug-In . SVG Version: 6.00 Build 0)  -->
<svg version="1.1" id="Layer_1" xmlns="http://www.w3.org/2000/svg" xmlns:xlink="http://www.w3.org/1999/xlink" x="0px" y="0px"
	 viewBox="0 0 512 512" style="enable-background:new 0 0 512 512;" xml:space="preserve">
<path style="fill:#D7EBFF;" d="M338.787,0h-198.69C94.447,0,57.31,37.136,57.31,82.787v280.195c0,9.141,7.417,16.557,16.557,16.557
	s16.557-7.417,16.557-16.557c0-27.39,22.282-49.672,49.672-49.672h198.69c45.651,0,82.787,37.136,82.787,82.787
	c0,9.141,7.417,16.557,16.557,16.557s16.557-7.417,16.557-16.557V115.902C454.69,51.99,402.699,0,338.787,0z"/>
<path style="fill:#BDDEFF;" d="M338.787,0H256v313.31h82.787c45.651,0,82.787,37.136,82.787,82.787
	c0,9.141,7.417,16.557,16.557,16.557s16.557-7.417,16.557-16.557V115.902C454.69,51.99,402.699,0,338.787,0z"/>
<path style="fill:#EDF0F2;" d="M337.456,275.958h-198.69c-45.651,0-81.456,41.374-81.456,87.025
	c0,22.297,8.901,42.525,23.284,57.425c-13.939,8.806-23.284,24.247-23.284,41.92c0,27.39,22.282,49.672,49.672,49.672h231.805
	c63.912,0,115.902-51.99,115.902-115.902S401.369,275.958,337.456,275.958z"/>
<path style="fill:#DAE1E6;" d="M337.456,275.958h-81.684L256,512h82.787c63.912,0,115.902-51.99,115.902-115.902
	S401.369,275.958,337.456,275.958z"/>
<path style="fill:#C9D2D9;" d="M338.787,478.885H106.983c-9.13,0-16.557-7.428-16.557-16.557s7.428-16.557,16.557-16.557h33.115
	h198.69c27.39,0,49.672-22.282,49.672-49.672c0-27.39-22.282-49.672-49.672-49.672h-198.69c-9.141,0-16.557,7.417-16.557,16.557
	s7.417,16.557,16.557,16.557h198.69c9.13,0,16.557,7.428,16.557,16.557c0,9.13-7.428,16.557-16.557,16.557h-198.69
	c-27.39,0-49.672-22.282-49.672-49.672c0-27.39,22.282-49.672,49.672-49.672h198.69c45.651,0,82.787,37.136,82.787,82.787
	S384.439,478.885,338.787,478.885z"/>
<g>
	<path style="fill:#B7C4CC;" d="M338.787,313.31H256v33.115h82.787c27.39,0,49.672,22.282,49.672,49.672
		c0,27.39-22.282,49.672-49.672,49.672H256v33.115h82.787c45.651,0,82.787-37.136,82.787-82.787S384.439,313.31,338.787,313.31z"/>
	<path style="fill:#B7C4CC;" d="M355.345,396.098c0-9.13-7.428-16.557-16.557-16.557H256v33.115h82.787
		C347.917,412.655,355.345,405.229,355.345,396.098z"/>
</g>
<g>
</g>
<g>
</g>
<g>
</g>
<g>
</g>
<g>
</g>
<g>
</g>
<g>
</g>
<g>
</g>
<g>
</g>
<g>
</g>
<g>
</g>
<g>
</g>
<g>
</g>
<g>
</g>
<g>
</g>
</svg>
